<?xml version="1.0" standalone="no"?>
<!DOCTYPE svg PUBLIC "-//W3C//DTD SVG 20010904//EN"
 "http://www.w3.org/TR/2001/REC-SVG-20010904/DTD/svg10.dtd">
<svg version="1.0" xmlns="http://www.w3.org/2000/svg"
 width="310.000000pt" height="310.000000pt" viewBox="0 0 310.000000 310.000000"
 preserveAspectRatio="xMidYMid meet">
<metadata>
Created by potrace 1.14, written by Peter Selinger 2001-2017
</metadata>
<g transform="translate(0.000000,310.000000) scale(0.100000,-0.100000)"
fill="#000000" stroke="none">
<path d="M0 1550 l0 -1550 1550 0 1550 0 0 1550 0 1550 -1550 0 -1550 0 0
-1550z m1570 1473 c1 -24 111 -124 160 -146 30 -13 64 -35 76 -48 38 -43 61
-57 75 -48 19 12 116 11 124 -1 3 -5 15 -10 25 -10 10 0 25 -7 34 -15 8 -8 19
-15 24 -15 6 0 12 -6 15 -12 3 -10 9 -10 24 -2 10 6 38 15 62 19 29 5 45 13
48 25 7 27 94 70 142 70 46 0 83 -19 120 -62 15 -18 38 -30 63 -34 21 -4 38
-10 38 -15 0 -5 6 -9 13 -9 7 0 28 -11 48 -24 20 -14 58 -27 84 -30 l48 -6
-22 23 c-23 25 -20 57 5 57 8 0 14 5 14 10 0 6 15 10 33 10 46 0 67 -37 46
-77 -17 -33 -26 -43 -59 -64 -30 -19 -84 -34 -76 -21 3 5 -6 14 -20 21 -38 17
-47 14 -40 -13 10 -38 -30 -78 -79 -79 -22 -1 -40 4 -43 11 -2 7 -9 12 -16 12
-8 0 -10 -22 -8 -76 4 -63 1 -79 -12 -86 -20 -11 -20 -45 -1 -78 31 -55 10
-202 -36 -251 -8 -8 -23 -27 -33 -44 -24 -37 -27 -41 -71 -92 -36 -41 -39 -63
-9 -63 28 0 42 -23 31 -47 -10 -23 -57 -33 -57 -13 0 6 -6 10 -14 10 -15 0
-28 -86 -30 -200 l-1 -65 45 -22 c59 -29 81 -28 126 2 42 28 69 32 90 11 29
-30 14 -70 -34 -93 -28 -13 -37 -14 -40 -4 -7 20 -52 -28 -52 -55 0 -12 10
-31 23 -41 81 -65 140 -213 123 -306 -6 -30 -63 -107 -81 -107 -12 0 -35 -28
-35 -42 0 -20 -54 -78 -71 -78 -8 0 -19 -4 -24 -9 -19 -17 -70 0 -90 30 -21
30 -41 40 -32 15 3 -8 -1 -17 -8 -20 -8 -3 -12 -12 -9 -20 5 -13 -110 -138
-124 -133 -4 1 -62 -54 -129 -122 -67 -67 -126 -120 -132 -117 -5 3 -7 -2 -4
-12 3 -13 -14 -35 -57 -76 l-62 -57 -58 57 -58 56 21 24 c56 65 86 94 95 94
15 0 57 -24 77 -44 18 -17 19 -17 28 1 14 25 202 209 221 216 23 9 20 21 -17
59 -58 59 -61 60 -93 43 -16 -8 -39 -15 -51 -15 -36 0 -66 -19 -96 -61 -22
-33 -25 -43 -16 -60 21 -41 -10 -94 -68 -118 -28 -12 -36 -11 -58 3 -24 16
-26 15 -80 -34 l-56 -51 -44 47 c-42 43 -47 45 -83 39 -21 -3 -50 -1 -65 4
-32 12 -70 69 -62 93 3 10 8 26 11 36 7 22 -69 100 -106 108 -38 9 -80 28 -80
36 0 5 -7 8 -15 8 -8 0 -15 -5 -15 -11 0 -6 -7 -9 -14 -6 -10 4 -13 1 -10 -7
3 -7 -7 -21 -21 -32 -31 -23 -31 -29 -2 -58 12 -13 47 -51 77 -85 91 -102 138
-151 145 -151 3 0 17 11 31 25 14 14 27 25 29 25 9 0 75 -74 75 -83 0 -5 10
-17 23 -27 l22 -19 -45 -45 c-24 -25 -53 -46 -64 -46 -29 0 -129 107 -123 130
3 11 0 18 -5 17 -5 -1 -15 7 -21 17 -7 11 -54 62 -105 114 -63 63 -92 100 -89
112 3 13 -1 16 -18 12 -13 -2 -28 3 -36 12 -8 9 -31 34 -51 55 -45 45 -47 63
-13 89 26 21 33 46 15 57 -7 4 -3 14 10 25 11 9 20 25 20 35 0 18 -37 75 -48
75 -4 0 -6 -40 -5 -90 0 -49 -3 -90 -8 -90 -5 0 -9 11 -9 24 0 13 -5 26 -12
28 -7 3 -14 32 -16 72 -4 54 -1 71 13 86 22 25 13 37 -18 23 -12 -6 -30 -14
-39 -17 -11 -3 -18 -15 -18 -32 0 -37 -29 -81 -62 -95 -37 -15 -43 -26 -24
-44 28 -28 101 -7 82 24 -10 16 13 23 27 9 32 -32 50 -98 27 -98 -5 0 -10 -5
-10 -11 0 -14 -30 -38 -48 -39 -24 0 -112 83 -112 106 0 8 -21 36 -48 62 -62
61 -87 132 -63 180 5 9 14 35 21 57 15 50 66 132 104 168 25 24 28 31 18 52
-7 15 -20 25 -32 25 -30 0 -70 29 -82 59 -8 21 -6 29 11 42 19 16 58 15 71 0
3 -4 18 -16 33 -28 l29 -22 49 25 49 26 0 52 c0 28 -3 88 -7 133 -6 79 -7 82
-23 63 -22 -25 -28 -25 -51 1 -20 23 -15 49 8 49 29 0 7 67 -44 136 -26 36
-55 78 -63 92 -8 15 -17 29 -20 32 -26 25 -43 170 -20 170 6 0 10 9 10 20 0
11 5 20 10 20 6 0 10 7 10 15 0 8 -4 15 -9 15 -5 0 -11 12 -14 28 -3 15 -9 40
-13 55 -4 16 -1 46 6 68 15 44 10 57 -12 35 -38 -37 -114 -17 -145 38 -7 12
-17 13 -57 4 -50 -10 -77 -3 -118 31 -23 18 -23 78 -1 103 21 23 74 23 101 -1
23 -19 30 -51 12 -51 -5 0 -10 -4 -10 -10 0 -17 35 -11 58 10 24 22 130 80
147 80 6 0 32 20 59 45 44 40 55 45 96 45 55 0 140 -49 140 -81 0 -15 7 -19
39 -19 22 0 43 -4 46 -10 3 -5 17 -10 31 -10 13 0 24 5 24 10 0 6 7 10 15 10
8 0 15 4 15 8 0 21 82 44 144 41 59 -4 66 -2 102 29 21 18 70 48 109 66 50 24
85 50 120 89 41 45 56 56 83 56 17 1 32 -2 32 -6z m35 -2658 c47 -47 85 -88
85 -92 0 -17 -181 -183 -192 -177 -22 14 -50 39 -92 82 -22 24 -54 57 -71 74
l-30 30 44 36 c23 20 64 58 89 83 26 26 55 47 65 48 10 0 54 -35 102 -84z"/>
<path d="M1360 2802 c-92 -47 -102 -61 -67 -96 l26 -26 23 28 c13 16 30 31 38
35 8 4 22 11 30 16 8 5 29 15 47 21 32 12 32 13 15 36 -9 13 -22 24 -28 24 -7
0 -45 -17 -84 -38z"/>
<path d="M1593 2812 l-26 -26 24 -9 c59 -22 96 -44 123 -75 l29 -33 23 22 c42
39 29 57 -79 113 l-68 34 -26 -26z"/>
<path d="M643 2778 c-16 -8 -41 -50 -30 -53 1 0 19 -8 39 -19 37 -18 37 -18
74 5 l37 23 -33 28 c-36 30 -52 33 -87 16z"/>
<path d="M2327 2769 c-32 -17 -36 -23 -26 -35 6 -8 18 -14 25 -14 8 0 23 -6
34 -12 16 -10 24 -10 40 0 11 6 29 12 40 12 27 0 25 8 -7 42 -31 33 -54 34
-106 7z"/>
<path d="M1036 2698 l-28 -21 32 -29 c38 -32 60 -36 60 -10 0 10 9 28 20 40
11 12 20 26 20 32 0 18 -74 10 -104 -12z"/>
<path d="M1460 2702 c-14 -9 -26 -20 -28 -24 -2 -5 -9 -8 -16 -8 -20 0 -54
-46 -65 -87 -5 -21 -12 -65 -14 -99 l-5 -61 49 -54 c26 -30 48 -58 49 -63 0
-5 -10 -17 -22 -27 -11 -11 -17 -19 -12 -19 5 0 36 -25 68 -54 l59 -54 47 44
c26 25 55 51 65 58 15 11 15 13 1 25 -22 19 -20 42 7 66 60 53 75 82 70 132
-8 90 -25 162 -46 184 -49 53 -158 75 -207 41z"/>
<path d="M1923 2709 c-8 -8 -5 -18 13 -36 13 -13 24 -30 24 -38 0 -24 26 -17
58 14 l29 30 -31 14 c-48 22 -81 28 -93 16z"/>
<path d="M2798 2708 c-5 -14 15 -38 31 -38 6 0 11 11 11 25 0 18 -5 25 -19 25
-11 0 -21 -6 -23 -12z"/>
<path d="M240 2686 c0 -10 9 -16 21 -16 24 0 21 23 -4 28 -10 2 -17 -3 -17
-12z"/>
<path d="M2530 2681 c0 -12 9 -21 26 -25 25 -7 25 -8 9 -26 -16 -18 -14 -40 4
-40 10 0 51 35 51 44 0 14 -65 66 -82 66 -5 0 -8 -9 -8 -19z"/>
<path d="M480 2660 c-32 -29 -32 -31 -14 -45 30 -23 47 -19 40 9 -4 18 -1 25
14 29 13 3 18 10 14 21 -9 23 -17 20 -54 -14z"/>
<path d="M590 2649 c0 -24 23 -21 28 4 2 10 -3 17 -12 17 -10 0 -16 -9 -16
-21z"/>
<path d="M731 2657 c-6 -8 -8 -16 -5 -20 10 -9 34 4 34 19 0 18 -14 18 -29 1z"/>
<path d="M810 2640 c0 -16 -5 -40 -11 -54 -9 -18 -9 -29 -1 -38 20 -25 25
-124 9 -157 -22 -45 -4 -47 29 -3 15 20 36 43 46 50 15 11 18 28 17 122 l-1
110 -44 0 c-42 0 -44 -1 -44 -30z"/>
<path d="M1172 2617 c-13 -28 -28 -76 -32 -105 -15 -90 -31 -96 -57 -20 -19
55 -79 128 -106 128 -18 0 -24 -27 -30 -133 -3 -67 -3 -68 40 -118 l43 -51
-28 -27 c-65 -67 -75 -83 -63 -103 8 -13 8 -55 0 -165 -6 -82 -7 -177 -3 -213
8 -72 8 -68 -2 -94 -6 -17 -5 -17 16 -6 29 16 70 56 70 69 0 22 45 52 75 50
36 -3 75 9 75 22 0 5 9 9 20 9 26 0 25 -11 -2 -40 -15 -16 -18 -25 -10 -28 18
-6 15 -20 -9 -45 -12 -12 -28 -37 -36 -56 -13 -30 -12 -37 3 -69 15 -33 15
-36 0 -47 -13 -10 -16 -30 -16 -99 0 -75 -3 -92 -25 -126 -14 -22 -25 -45 -25
-51 0 -19 -132 -129 -156 -129 -13 0 -33 -35 -34 -60 0 -25 49 -97 50 -72 0 6
-4 12 -10 12 -5 0 -10 24 -10 54 0 41 4 55 16 60 9 4 18 5 19 4 1 -2 5 -33 8
-70 5 -55 3 -69 -10 -76 -14 -8 -14 -12 2 -35 9 -14 25 -29 36 -32 25 -8 24
-23 -2 -51 l-20 -22 24 -26 c26 -28 41 -34 35 -14 -3 7 2 19 9 27 9 8 11 20 6
30 -4 9 -8 37 -8 63 0 42 4 50 39 80 22 18 58 51 82 73 23 22 53 49 66 60 63
51 60 26 54 562 l-6 488 -45 46 -44 45 49 52 50 51 0 85 c0 160 -51 219 -98
113z"/>
<path d="M1811 2641 c-19 -27 -48 -167 -37 -179 3 -2 1 -13 -5 -23 -8 -15 -3
-25 23 -52 78 -77 76 -70 21 -124 l-49 -48 -3 -504 -3 -504 39 -34 c21 -19 58
-51 83 -71 98 -81 122 -111 127 -155 3 -24 1 -59 -5 -79 -15 -56 1 -69 37 -30
31 32 39 52 21 52 -18 0 -11 30 15 64 22 29 23 36 13 63 -9 23 -9 46 -1 90 11
57 10 59 -18 88 -124 130 -120 125 -149 220 -9 31 -9 51 0 84 10 40 10 43 -14
62 -31 24 -32 29 -7 58 16 19 18 28 9 59 -9 33 -51 82 -70 82 -5 0 -8 7 -8 15
0 8 7 15 15 15 12 0 10 8 -10 37 -35 52 -16 64 30 19 30 -30 39 -35 56 -26 15
9 26 6 49 -10 17 -12 30 -25 30 -30 0 -12 81 -90 94 -90 7 0 11 28 12 83 0 45
4 157 9 250 7 140 11 167 24 167 14 0 -86 100 -101 100 -20 0 -3 30 43 78 29
30 47 57 43 63 -4 7 -6 40 -5 74 2 64 -12 110 -36 119 -15 6 -69 -46 -78 -75
-4 -11 -11 -19 -16 -19 -5 0 -9 -15 -9 -34 0 -43 -9 -66 -25 -66 -15 0 -25 22
-25 58 0 39 -41 142 -67 170 -18 18 -30 15 -52 -17z"/>
<path d="M2168 2543 c3 -115 6 -130 25 -151 12 -13 30 -28 40 -34 17 -8 18 -6
11 29 -4 21 -10 39 -14 41 -11 4 15 113 29 121 10 7 7 17 -13 49 -14 23 -26
48 -26 57 0 10 -10 15 -27 15 l-28 0 3 -127z"/>
<path d="M2430 2656 c0 -8 7 -16 15 -20 10 -4 15 1 15 14 0 11 -7 20 -15 20
-8 0 -15 -6 -15 -14z"/>
<path d="M2349 2594 c-9 -12 -9 -20 1 -39 7 -14 19 -25 25 -25 18 0 37 26 33
46 -5 24 -44 36 -59 18z"/>
<path d="M652 2588 c-14 -14 -16 -38 -2 -38 6 0 10 -6 10 -14 0 -24 20 -29 36
-10 20 27 14 68 -11 72 -11 1 -26 -3 -33 -10z"/>
<path d="M2290 2471 c0 -43 9 -55 34 -45 22 8 20 47 -2 67 -27 25 -32 21 -32
-22z"/>
<path d="M722 2476 c-9 -20 -7 -28 7 -45 26 -30 31 -26 31 24 0 51 -19 61 -38
21z"/>
<path d="M2440 2471 c-13 -33 -9 -46 21 -61 18 -10 19 -7 19 40 0 58 -20 68
-40 21z"/>
<path d="M590 2451 c0 -36 15 -48 35 -27 13 13 13 19 3 36 -19 29 -38 25 -38
-9z"/>
<path d="M2362 2387 c-17 -18 -19 -26 -10 -35 12 -12 68 -17 68 -7 0 8 -30 65
-34 65 -1 0 -12 -10 -24 -23z"/>
<path d="M651 2371 c-13 -23 -5 -31 31 -31 21 0 28 5 28 19 0 17 -18 31 -40
31 -5 0 -14 -8 -19 -19z"/>
<path d="M2373 2292 l-61 -3 0 -79 c0 -62 3 -77 14 -73 8 3 14 11 14 19 0 20
16 17 32 -4 23 -32 36 -33 62 -5 21 22 26 38 26 79 0 30 -5 55 -12 60 -7 5
-41 8 -75 6z"/>
<path d="M600 2228 c0 -32 4 -58 10 -58 6 0 10 -6 10 -13 0 -7 9 -18 20 -25
17 -10 23 -10 35 2 8 8 15 22 15 30 0 23 11 20 37 -11 l22 -28 1 30 c0 17 3
53 6 82 l7 51 -82 -1 -81 0 0 -59z"/>
<path d="M810 1941 c0 -312 1 -329 18 -324 10 2 31 15 47 27 26 21 27 25 17
55 -8 22 -8 39 -2 51 7 13 7 21 0 25 -7 4 -10 81 -9 219 l3 212 -29 32 c-16
18 -32 32 -37 32 -4 0 -8 -148 -8 -329z"/>
<path d="M2213 2233 c-15 -21 -31 -40 -34 -43 -4 -3 -9 -75 -13 -160 -4 -85
-10 -204 -14 -265 -8 -123 -4 -133 68 -170 31 -16 33 -16 26 0 -10 27 -8 439
3 550 6 55 11 106 11 113 0 22 -19 12 -47 -25z"/>
<path d="M1343 2212 c-25 -29 -28 -42 -13 -42 6 0 10 -5 10 -12 0 -6 18 -29
41 -51 43 -42 59 -43 83 -4 9 14 3 25 -36 60 -27 24 -48 51 -48 60 0 24 -12
21 -37 -11z"/>
<path d="M1670 2220 c0 -5 -23 -31 -52 -58 -36 -34 -49 -54 -45 -66 13 -33 36
-29 81 16 40 41 50 61 47 94 -1 14 -31 27 -31 14z"/>
<path d="M726 2071 c-17 -19 -18 -23 -4 -38 9 -10 18 -27 20 -38 3 -14 7 -9
13 18 4 21 3 47 -2 58 -8 21 -9 21 -27 0z"/>
<path d="M2310 2030 c1 -59 2 -63 15 -46 8 11 15 25 15 32 0 7 5 14 12 16 8 3
2 15 -15 34 l-27 29 0 -65z"/>
<path d="M1330 2025 c0 -44 3 -53 15 -49 8 4 15 11 15 16 0 6 7 16 16 23 15
10 14 14 -10 38 -15 15 -29 27 -31 27 -3 0 -5 -25 -5 -55z"/>
<path d="M1492 2050 c-26 -25 -26 -22 -3 -48 23 -27 25 -27 55 -1 l25 21 -24
24 c-29 29 -26 29 -53 4z"/>
<path d="M1670 2050 c-22 -16 -23 -20 -10 -37 43 -53 54 -50 42 15 l-7 41 -25
-19z"/>
<path d="M1402 1959 c-11 -17 -11 -25 3 -45 19 -30 35 -27 55 8 12 22 12 29 1
42 -18 22 -44 20 -59 -5z"/>
<path d="M1566 1953 c-19 -26 -19 -26 5 -44 29 -23 36 -23 55 -5 17 18 17 36
0 59 -18 24 -38 21 -60 -10z"/>
<path d="M1330 1852 c0 -56 2 -62 15 -48 8 8 15 19 15 25 0 6 5 11 10 11 16 0
12 13 -15 45 l-24 30 -1 -63z"/>
<path d="M1672 1875 c-24 -28 -23 -32 16 -74 20 -20 23 -9 15 48 l-8 53 -23
-27z"/>
<path d="M1483 1873 c-21 -17 -21 -17 -2 -45 20 -28 34 -28 72 -3 16 11 16 13
-4 39 -24 30 -37 32 -66 9z"/>
<path d="M1402 1790 c-9 -15 -9 -25 0 -45 15 -33 42 -32 57 2 11 24 10 29 -11
45 -29 22 -31 22 -46 -2z"/>
<path d="M1573 1785 c-21 -22 -21 -24 -4 -44 38 -44 79 -5 47 44 -19 29 -16
29 -43 0z"/>
<path d="M1330 1690 l0 -75 32 33 c29 29 31 33 16 44 -10 7 -24 27 -33 43 -15
30 -15 29 -15 -45z"/>
<path d="M1487 1701 c-21 -21 -14 -48 15 -57 13 -4 27 1 39 13 19 19 19 20 1
41 -23 26 -31 27 -55 3z"/>
<path d="M1671 1701 l-23 -20 26 -38 26 -38 0 58 c0 31 -2 57 -3 57 -2 0 -14
-9 -26 -19z"/>
<path d="M1005 1677 c-11 -7 -22 -15 -25 -18 -3 -4 -15 -9 -27 -13 -13 -4 -23
-12 -23 -17 0 -5 -7 -9 -15 -9 -8 0 -15 -4 -15 -9 0 -5 -12 -14 -27 -20 -35
-15 -78 -50 -70 -57 5 -5 46 14 57 27 3 3 20 14 38 24 17 11 32 23 32 27 0 4
9 8 21 8 11 0 27 7 35 15 9 8 26 15 40 15 17 0 24 5 24 20 0 22 -15 25 -45 7z"/>
<path d="M1980 1671 c0 -12 11 -23 28 -29 59 -21 132 -56 132 -64 0 -4 6 -8
12 -8 18 0 -28 40 -95 83 -65 42 -77 45 -77 18z"/>
<path d="M1406 1619 c-11 -17 -12 -27 -4 -45 15 -33 43 -30 58 6 11 27 11 32
-6 45 -25 19 -30 19 -48 -6z"/>
<path d="M1574 1615 c-21 -23 -21 -25 -4 -45 22 -25 32 -25 55 0 18 20 18 21
-6 45 l-24 24 -21 -24z"/>
<path d="M1997 1586 c-3 -8 10 -35 31 -60 37 -46 67 -57 90 -34 8 8 12 8 12 1
0 -6 27 -22 61 -37 59 -26 104 -65 137 -118 22 -38 32 -35 32 8 0 35 -18 64
-39 64 -6 0 -11 3 -11 8 0 4 -16 16 -35 26 -19 11 -35 23 -35 28 0 4 -7 8 -15
8 -8 0 -15 3 -15 8 0 4 -20 16 -45 27 -25 11 -45 23 -45 28 0 4 -6 7 -14 7 -7
0 -34 11 -59 25 -37 21 -46 23 -50 11z"/>
<path d="M955 1567 c-27 -11 -52 -23 -55 -26 -3 -4 -23 -15 -45 -26 -22 -11
-42 -22 -45 -25 -3 -3 -23 -18 -45 -35 -58 -43 -65 -51 -65 -78 0 -33 12 -42
25 -18 19 36 96 110 131 127 19 9 53 17 76 17 33 0 46 6 69 31 30 33 37 57 17
55 -7 0 -35 -10 -63 -22z"/>
<path d="M1330 1516 c0 -45 3 -54 15 -50 8 4 15 12 15 20 0 8 5 14 10 14 11 0
-5 34 -27 58 -11 11 -13 3 -13 -42z"/>
<path d="M1680 1545 c-7 -14 -17 -25 -22 -25 -15 0 -8 -32 10 -49 11 -9 21
-23 25 -31 3 -8 6 18 6 58 1 39 0 72 -2 72 -2 0 -10 -11 -17 -25z"/>
<path d="M1485 1534 c-18 -14 -19 -17 -4 -42 18 -32 28 -33 62 -8 l26 20 -27
23 c-32 27 -31 27 -57 7z"/>
<path d="M565 1514 c9 -9 18 -14 21 -11 9 9 -6 27 -22 27 -13 0 -13 -2 1 -16z"/>
<path d="M735 1513 c-43 -18 -65 -36 -65 -52 0 -23 38 -9 80 29 48 44 46 47
-15 23z"/>
<path d="M2236 1515 c4 -8 12 -15 20 -15 8 0 14 -3 14 -8 0 -4 16 -16 35 -26
19 -11 35 -23 35 -28 0 -4 11 -8 25 -8 37 0 35 38 -2 46 -16 3 -49 17 -74 30
-55 28 -60 29 -53 9z"/>
<path d="M2493 1503 c-24 -9 -14 -30 12 -25 14 2 25 11 25 18 0 14 -14 17 -37
7z"/>
<path d="M1572 1445 c-20 -23 -21 -28 -8 -40 36 -36 80 5 48 45 l-17 21 -23
-26z"/>
<path d="M1400 1440 c-9 -18 -8 -25 7 -42 18 -20 18 -20 41 8 24 28 22 37 -15
48 -16 5 -25 1 -33 -14z"/>
<path d="M1668 1382 c-33 -32 -34 -42 -9 -70 31 -36 41 -27 41 38 0 33 -1 60
-2 59 -2 0 -15 -12 -30 -27z"/>
<path d="M1330 1352 c0 -28 2 -52 3 -52 7 0 47 38 47 44 0 4 -11 19 -25 34
l-25 27 0 -53z"/>
<path d="M941 1363 c-7 -8 -11 -16 -8 -19 2 -2 10 2 17 11 17 20 9 27 -9 8z"/>
<path d="M1480 1365 c-15 -18 -3 -55 18 -55 9 0 26 7 36 15 19 15 19 15 -2 35
-25 24 -35 25 -52 5z"/>
<path d="M622 1322 c-12 -20 -29 -53 -39 -72 -10 -19 -20 -37 -23 -40 -9 -9
-28 -69 -23 -74 9 -8 53 13 76 36 55 57 74 130 43 170 -12 16 -15 14 -34 -20z"/>
<path d="M2085 1330 c3 -5 8 -10 11 -10 2 0 4 5 4 10 0 6 -5 10 -11 10 -5 0
-7 -4 -4 -10z"/>
<path d="M915 1320 c-3 -5 -1 -10 4 -10 6 0 11 5 11 10 0 6 -2 10 -4 10 -3 0
-8 -4 -11 -10z"/>
<path d="M2390 1295 c-10 -26 -4 -55 11 -55 5 0 9 -5 9 -10 0 -27 87 -110 115
-110 23 0 34 14 18 22 -5 2 -21 28 -37 58 -17 30 -35 60 -40 66 -6 7 -19 21
-28 33 -23 28 -36 27 -48 -4z"/>
<path d="M1572 1277 c-24 -25 -28 -37 -12 -37 6 0 34 -22 63 -50 28 -27 55
-50 60 -50 4 0 7 23 7 50 0 43 -3 50 -19 50 -11 0 -21 3 -23 8 -2 4 -15 17
-29 30 l-25 22 -22 -23z"/>
<path d="M901 1274 c0 -11 3 -14 6 -6 3 7 2 16 -1 19 -3 4 -6 -2 -5 -13z"/>
<path d="M1390 1273 c-13 -9 -35 -30 -50 -46 -23 -26 -25 -34 -16 -53 6 -13
15 -24 19 -24 5 0 33 25 63 56 44 45 53 59 43 70 -15 18 -29 18 -59 -3z"/>
<path d="M1469 1191 c-31 -27 -32 -30 -14 -37 11 -5 20 -3 23 4 5 17 28 15 58
-4 13 -9 27 -14 31 -10 3 3 1 6 -5 6 -7 0 -12 6 -12 13 0 8 -11 23 -23 35
l-24 22 -34 -29z"/>
<path d="M1235 1140 c-9 -9 -40 -37 -127 -115 -37 -34 -55 -80 -40 -103 7 -10
24 0 67 40 118 107 122 112 127 151 4 36 -6 46 -27 27z"/>
<path d="M2140 1094 c0 -49 2 -55 15 -44 9 7 15 29 15 51 0 22 5 39 10 39 6 0
10 -4 10 -10 0 -5 7 -10 15 -10 23 0 18 17 -7 24 -53 14 -58 10 -58 -50z"/>
<path d="M1756 1109 c-7 -38 3 -58 50 -95 21 -16 54 -46 75 -66 21 -20 46 -41
57 -47 17 -9 21 -7 26 14 4 15 0 37 -9 55 -16 30 -64 80 -78 80 -4 0 -23 14
-42 31 -66 60 -72 62 -79 28z"/>
<path d="M1361 1095 c-33 -33 -18 -51 20 -23 30 22 39 48 17 47 -7 0 -24 -11
-37 -24z"/>
<path d="M1600 1105 c0 -23 60 -79 72 -67 6 6 -1 22 -22 46 -34 38 -50 45 -50
21z"/>
<path d="M530 1095 c0 -12 24 -55 31 -55 12 0 31 39 24 50 -6 10 -55 14 -55 5z"/>
<path d="M2256 1085 c-3 -8 -1 -15 5 -15 7 0 10 -30 7 -89 -2 -68 0 -87 10
-84 6 3 12 8 12 12 0 13 46 29 59 21 9 -5 10 -9 2 -14 -6 -4 -11 -14 -11 -22
0 -24 66 -18 90 9 l21 22 -20 3 c-12 2 -21 7 -21 12 0 4 -11 11 -25 14 -16 4
-25 13 -25 26 0 10 -4 21 -9 24 -5 3 -12 22 -15 41 -9 47 -66 76 -80 40z"/>
<path d="M632 1081 c-16 -10 -12 -53 5 -58 13 -5 53 35 53 54 0 15 -38 17 -58
4z"/>
<path d="M2373 1053 c22 -49 41 -73 61 -73 14 0 17 5 11 23 -3 12 -9 32 -12
44 -5 19 -29 33 -60 33 -9 0 -9 -6 0 -27z"/>
<path d="M2488 1073 c-26 -4 -41 -23 -18 -23 6 0 10 -12 10 -26 0 -31 27 -30
44 1 6 11 15 23 20 26 11 9 -2 29 -17 28 -7 -1 -24 -4 -39 -6z"/>
<path d="M2205 1032 c-6 -4 -21 -22 -34 -40 -17 -25 -20 -36 -12 -46 9 -11 17
-11 36 -2 21 9 25 18 25 54 0 45 0 45 -15 34z"/>
<path d="M1270 1013 c-14 -10 -39 -32 -56 -50 -17 -18 -35 -33 -38 -33 -4 0
-24 -16 -44 -35 -31 -29 -34 -37 -22 -45 26 -17 40 -11 40 18 0 23 7 32 35 45
39 19 95 23 95 7 0 -18 31 -10 55 15 14 13 25 27 25 30 0 8 -52 65 -59 65 -4
0 -18 -8 -31 -17z"/>
<path d="M1695 1000 c-3 -11 -11 -20 -16 -20 -17 0 -9 -43 13 -61 14 -13 28
-17 42 -12 55 19 125 -11 126 -54 0 -31 17 -37 46 -18 l25 16 -38 30 c-21 16
-43 33 -50 39 -7 5 -15 10 -19 10 -4 0 -14 8 -23 18 -25 27 -82 72 -91 72 -5
0 -12 -9 -15 -20z"/>
<path d="M1543 933 c-15 -5 -17 -23 -4 -23 5 0 11 7 15 15 3 8 4 15 3 14 -1 0
-8 -3 -14 -6z"/>
<path d="M1382 909 c-28 -22 -28 -50 1 -77 l22 -21 35 30 c34 30 34 31 15 45
-11 8 -27 20 -36 28 -13 11 -19 10 -37 -5z"/>
<path d="M1610 911 c-9 -3 -27 -14 -40 -23 l-24 -18 29 -30 c16 -16 33 -30 37
-30 12 0 57 52 57 65 0 16 -43 43 -59 36z"/>
<path d="M1230 882 c-34 -12 -54 -52 -27 -52 21 0 62 39 51 49 -5 5 -16 6 -24
3z"/>
<path d="M1774 865 c-7 -17 10 -35 34 -35 16 0 15 3 -8 30 -18 20 -20 21 -26
5z"/>
<path d="M2176 871 c-10 -15 22 -20 34 -5 10 11 9 14 -8 14 -12 0 -23 -4 -26
-9z"/>
<path d="M1265 808 c-18 -18 -25 -32 -18 -35 6 -2 21 -13 34 -24 12 -10 25
-19 29 -19 9 0 50 45 50 55 0 10 -49 55 -59 55 -3 0 -19 -15 -36 -32z"/>
<path d="M1472 798 l-30 -31 34 -23 c43 -29 45 -29 72 -1 29 31 28 38 -12 64
l-33 21 -31 -30z"/>
<path d="M1678 795 c-15 -30 -15 -35 -3 -35 8 0 15 -4 15 -9 0 -23 34 -19 61
6 34 32 37 53 9 53 -11 0 -20 5 -20 10 0 6 -10 10 -22 10 -16 0 -28 -11 -40
-35z"/>
<path d="M1368 719 c-20 -21 -15 -45 15 -71 17 -16 21 -16 53 -1 19 9 34 21
34 26 0 12 -62 67 -75 66 -5 0 -18 -9 -27 -20z"/>
<path d="M1583 716 c-18 -12 -32 -25 -33 -30 0 -10 47 -56 58 -56 13 0 72 40
72 49 0 5 -15 20 -32 33 l-33 24 -32 -20z"/>
<path d="M1306 632 c-7 -12 23 -52 39 -52 24 0 26 18 3 39 -24 23 -34 26 -42
13z"/>
<path d="M1476 611 l-29 -30 29 -25 c36 -32 39 -32 69 -1 31 31 31 48 0 69
-33 21 -37 21 -69 -13z"/>
<path d="M1680 615 c-7 -14 -10 -28 -6 -32 11 -12 41 12 44 36 5 29 -21 27
-38 -4z"/>
</g>
</svg>
