<?xml version="1.0" standalone="no"?>
<!DOCTYPE svg PUBLIC "-//W3C//DTD SVG 20010904//EN"
 "http://www.w3.org/TR/2001/REC-SVG-20010904/DTD/svg10.dtd">
<svg version="1.0" xmlns="http://www.w3.org/2000/svg"
 width="180.000000pt" height="180.000000pt" viewBox="0 0 180.000000 180.000000"
 preserveAspectRatio="xMidYMid meet">
<metadata>
YJewellerY
</metadata>
<g transform="translate(0.000000,180.000000) scale(0.100000,-0.100000)"
fill="#000000" stroke="none">
<path d="M870 1744 c-14 -14 -45 -34 -69 -45 -25 -11 -61 -32 -80 -47 -23 -17
-49 -27 -72 -28 -20 0 -49 -10 -65 -21 -22 -16 -34 -19 -47 -12 -9 6 -21 7
-26 4 -6 -3 -27 12 -48 33 -33 33 -44 38 -71 34 -18 -2 -42 -16 -55 -31 -12
-15 -38 -33 -57 -40 -19 -8 -42 -20 -51 -28 -15 -13 -59 -19 -46 -7 3 4 2 15
-4 26 -8 15 -17 18 -37 13 -49 -12 -55 -44 -16 -80 19 -18 33 -23 54 -19 20 5
34 0 50 -16 15 -15 31 -21 50 -18 27 4 29 2 34 -41 8 -65 8 -71 1 -117 -7 -42
8 -87 45 -129 9 -11 26 -35 36 -53 18 -32 18 -34 2 -43 -28 -16 -21 -38 14
-47 34 -8 32 0 29 -117 -1 -28 -7 -38 -26 -47 -20 -9 -28 -8 -43 5 -22 20 -58
22 -65 4 -5 -14 15 -47 30 -47 5 0 18 -6 28 -14 17 -12 16 -15 -21 -55 -52
-57 -65 -83 -66 -138 -1 -42 3 -51 33 -78 19 -16 43 -43 52 -58 24 -37 62 -55
86 -40 15 10 30 -1 102 -75 47 -48 97 -103 112 -122 46 -57 231 -240 243 -240
15 0 179 162 246 243 79 97 195 209 203 198 13 -22 53 -11 80 22 31 38 47 55
75 82 11 10 23 30 26 42 9 34 -23 123 -55 152 -55 52 -57 60 -22 72 50 17 67
69 23 69 -10 0 -28 -7 -41 -16 -18 -13 -28 -14 -47 -5 -22 10 -24 16 -24 91 0
52 4 79 10 75 16 -10 50 5 50 22 0 9 -7 21 -17 28 -14 11 -11 19 33 81 42 59
49 75 48 114 -4 134 0 200 10 190 17 -17 64 -11 79 10 11 15 24 20 50 18 43
-2 77 24 77 59 0 33 -45 50 -71 27 -10 -9 -15 -22 -12 -30 8 -21 -134 52 -147
76 -10 18 -61 36 -90 31 -8 -1 -27 -16 -42 -33 -32 -37 -85 -47 -122 -23 -14
9 -43 17 -65 19 -25 1 -50 11 -63 24 -13 11 -47 32 -75 45 -29 13 -65 36 -79
51 -33 32 -44 33 -74 0z m-12 -127 c-18 -5 -43 -18 -56 -30 -21 -19 -24 -20
-38 -5 -15 15 -12 19 37 47 50 29 54 29 72 13 18 -16 17 -17 -15 -25z m174 2
c27 -19 28 -23 15 -37 -14 -13 -19 -12 -47 12 -17 14 -40 26 -51 26 -19 0 -25
11 -12 24 12 12 62 -2 95 -25z m-607 -16 c15 -15 15 -17 1 -25 -21 -12 -57 8
-50 27 8 20 29 19 49 -2z m1005 7 c13 -8 13 -11 -2 -26 -13 -13 -22 -15 -39
-8 -20 9 -21 11 -5 27 20 19 25 20 46 7z m-775 -57 c-9 -38 -12 -40 -35 -15
-24 26 -25 29 -2 35 39 11 44 8 37 -20z m312 5 c38 -27 46 -44 48 -113 1 -42
-3 -55 -26 -79 -15 -16 -25 -36 -22 -44 6 -14 -42 -61 -62 -62 -18 0 -67 52
-61 65 3 8 -2 19 -10 26 -27 23 -41 63 -38 114 3 42 9 55 39 83 42 39 84 42
132 10z m233 12 c12 -7 12 -12 -4 -29 -18 -20 -20 -20 -32 -3 -27 35 -3 57 36
32z m-1045 -9 c3 -5 1 -12 -5 -16 -5 -3 -10 1 -10 9 0 18 6 21 15 7z m1520 -1
c3 -5 -1 -10 -9 -10 -9 0 -16 5 -16 10 0 6 4 10 9 10 6 0 13 -4 16 -10z
m-1372 -17 c-7 -2 -9 -11 -6 -19 6 -15 -12 -20 -22 -5 -7 12 25 45 34 35 3 -4
1 -9 -6 -11z m447 -43 c5 -68 -1 -100 -26 -130 l-27 -31 28 -29 28 -29 -1
-283 c0 -156 -1 -288 -1 -295 -1 -6 -33 -43 -72 -82 -68 -67 -70 -71 -68 -112
2 -25 -1 -44 -8 -46 -17 -6 -26 16 -13 32 7 9 8 15 1 20 -6 3 -24 25 -40 48
-27 40 -28 45 -14 67 l14 25 -4 -27 c-2 -16 2 -36 10 -45 12 -16 13 -12 10 29
-3 44 -1 48 34 75 59 44 68 67 71 179 1 76 6 104 19 119 9 11 16 27 17 35 0 8
3 23 7 33 8 18 -9 24 -20 7 -3 -5 -19 -10 -34 -10 -21 0 -36 -10 -55 -35 -15
-19 -30 -35 -35 -35 -4 0 -7 69 -7 153 1 140 3 154 23 183 l22 31 -21 20 c-16
17 -20 33 -19 83 0 35 3 65 6 68 7 8 35 -19 35 -34 0 -8 5 -14 10 -14 6 0 10
-11 10 -24 0 -27 17 -43 30 -30 5 5 11 23 14 39 3 17 13 47 22 68 17 36 18 37
35 20 10 -10 18 -29 19 -43z m375 -7 c10 -32 19 -64 21 -70 5 -21 29 -4 43 30
8 17 13 35 12 39 -1 7 38 32 40 26 1 -2 2 -31 3 -66 2 -49 -1 -65 -16 -79 -23
-21 -23 -34 2 -63 18 -21 20 -37 20 -177 0 -94 -4 -153 -10 -153 -5 0 -20 16
-32 35 -18 27 -29 34 -50 33 -14 -1 -33 4 -42 11 -21 17 -33 7 -17 -13 7 -8
10 -19 7 -24 -3 -5 2 -20 12 -33 25 -32 34 -59 20 -59 -7 0 -8 -11 -3 -32 4
-18 6 -52 6 -75 -2 -53 17 -91 68 -135 37 -31 39 -37 35 -76 -3 -23 -1 -42 4
-42 13 0 23 45 15 66 -4 11 -3 15 4 11 22 -14 20 -46 -5 -84 -14 -21 -30 -41
-36 -45 -8 -5 -8 -13 0 -25 8 -14 8 -21 -1 -30 -17 -16 -37 4 -26 26 5 9 10
19 10 24 3 18 -32 67 -88 120 l-61 58 0 294 0 295 29 32 29 32 -29 29 c-25 25
-29 36 -29 86 0 54 21 108 39 97 4 -3 16 -31 26 -63z m415 32 c0 -8 -7 -15
-16 -15 -10 0 -14 6 -10 15 3 8 1 15 -4 15 -6 0 -10 5 -10 10 0 7 6 7 20 0 11
-6 20 -17 20 -25z m-1019 8 c3 -72 -1 -115 -15 -135 -13 -18 -16 -19 -16 -5 0
9 0 18 0 20 -1 1 -5 20 -10 41 -12 54 -3 96 21 96 11 0 19 -7 20 -17z m815
-12 c7 -17 8 -35 2 -44 -5 -9 -9 -32 -10 -52 -1 -19 -4 -35 -8 -35 -20 0 -30
31 -30 92 0 59 2 68 18 68 10 0 22 -12 28 -29z m-923 -24 c3 -8 1 -20 -4 -28
-11 -19 -34 3 -26 25 8 20 23 21 30 3z m1016 -1 c9 -10 7 -16 -5 -27 -13 -10
-17 -10 -24 1 -9 14 -3 40 10 40 4 0 13 -6 19 -14z m-44 -86 c-12 -19 -22 -10
-17 16 4 22 6 24 14 10 5 -9 6 -21 3 -26z m-1023 -2 c-9 -9 -12 -7 -12 12 0
19 3 21 12 12 9 -9 9 -15 0 -24z m81 11 c-4 -13 -9 -17 -15 -11 -11 11 -3 32
12 32 4 0 6 -9 3 -21z m1017 -1 c0 -16 -3 -19 -11 -11 -6 6 -8 16 -5 22 11 17
16 13 16 -11z m-1050 -48 c0 -5 -7 -10 -16 -10 -8 0 -12 5 -9 10 3 6 10 10 16
10 5 0 9 -4 9 -10z m1011 -3 c-1 -12 -15 -9 -19 4 -3 6 1 10 8 8 6 -3 11 -8
11 -12z m-979 -79 c0 -49 -1 -52 -17 -38 -12 10 -16 9 -21 -4 -10 -27 -33 -18
-42 17 -10 35 1 59 23 51 8 -3 22 -1 32 4 23 13 24 11 25 -30z m992 28 c18 7
27 -31 16 -62 -10 -26 -40 -33 -40 -9 0 18 -12 19 -28 3 -9 -9 -12 -2 -12 35
0 45 1 46 25 37 14 -5 31 -7 39 -4z m-920 -203 c-2 -204 -1 -196 -16 -190 -10
3 -13 51 -13 195 0 169 2 189 15 177 13 -11 15 -43 14 -182z m814 -4 c0 -179
-2 -199 -15 -186 -21 21 -23 347 -3 372 7 8 14 15 15 15 2 0 3 -90 3 -201z
m-462 125 c18 -16 0 -37 -25 -29 -24 7 -51 53 -44 73 5 13 9 11 69 -44z m149
24 c-5 -25 -33 -58 -51 -58 -27 0 -25 23 6 55 35 37 51 38 45 3z m367 -90 c-9
-9 -12 -7 -12 12 0 19 3 21 12 12 9 -9 9 -15 0 -24z m-937 12 c3 -5 -1 -10 -9
-10 -9 0 -16 5 -16 10 0 6 4 10 9 10 6 0 13 -4 16 -10z m371 -1 c3 -6 0 -17
-7 -25 -12 -11 -14 -9 -14 11 0 26 9 32 21 14z m111 -5 c7 -18 -14 -35 -34
-27 -16 6 -17 30 0 36 21 9 27 7 34 -9z m88 -15 c4 -21 3 -22 -11 -7 -9 9 -13
21 -9 28 9 14 14 9 20 -21z m-150 -29 c10 -16 -16 -43 -28 -31 -11 11 -2 41
12 41 5 0 13 -5 16 -10z m114 -4 c8 -10 8 -16 -3 -25 -10 -9 -16 -8 -26 3 -12
15 -6 36 9 36 5 0 14 -6 20 -14z m-163 -75 c-11 -17 -25 -13 -21 7 2 9 4 19 4
22 1 2 6 -1 12 -7 6 -6 8 -16 5 -22z m114 14 c0 -9 -7 -18 -16 -22 -18 -7 -39
11 -30 26 11 17 46 13 46 -4z m87 -4 c1 -14 -3 -18 -13 -14 -15 6 -18 16 -7
26 11 12 19 8 20 -12z m-150 -47 c9 -23 -11 -38 -26 -20 -13 16 -7 36 10 36 5
0 12 -7 16 -16z m108 6 c4 -6 1 -18 -6 -26 -11 -14 -13 -14 -21 0 -15 26 12
51 27 26z m-157 -77 c-19 -23 -28 -1 -19 46 1 3 7 -4 15 -15 10 -13 11 -23 4
-31z m198 20 c4 -25 -5 -34 -20 -21 -10 9 -10 17 -3 30 12 19 20 16 23 -9z
m-88 0 c5 -17 -26 -29 -40 -15 -6 6 -7 15 -3 22 9 14 37 9 43 -7z m-298 -7 c0
-5 -60 -36 -69 -36 -12 1 42 40 55 40 8 0 14 -2 14 -4z m601 -17 c13 -11 17
-18 9 -15 -8 3 -23 9 -32 12 -10 4 -18 10 -18 15 0 15 16 10 41 -12z m-369
-51 c-13 -13 -26 8 -17 30 6 16 7 16 17 -1 7 -13 7 -22 0 -29z m108 2 c-17
-11 -31 6 -23 27 5 12 8 12 22 -2 14 -14 14 -17 1 -25z m-460 -5 c-7 -8 -18
-15 -24 -15 -6 0 -2 7 8 15 25 19 32 19 16 0z m85 -15 c-21 -23 -35 -26 -35
-7 0 13 41 38 49 31 2 -2 -4 -13 -14 -24z m638 16 c19 -15 23 -40 5 -34 -14 5
-43 48 -32 48 5 0 17 -7 27 -14z m88 -3 c13 -16 12 -17 -3 -4 -17 13 -22 21
-14 21 2 0 10 -8 17 -17z m-507 -44 c-9 -15 -24 10 -17 29 5 12 7 12 15 -2 5
-9 6 -21 2 -27z m116 16 c0 -18 -25 -26 -39 -12 -16 16 -14 25 7 30 22 5 32
-1 32 -18z m88 0 c0 -21 -3 -23 -14 -14 -11 9 -11 15 -3 25 15 19 17 18 17
-11z m462 5 c0 -5 -5 -10 -11 -10 -5 0 -7 5 -4 10 3 6 8 10 11 10 2 0 4 -4 4
-10z m-960 -4 c0 -2 -8 -10 -17 -17 -16 -13 -17 -12 -4 4 13 16 21 21 21 13z
m-80 -15 c0 -11 -31 -24 -39 -16 -3 3 1 10 9 15 19 12 30 12 30 1z m880 -1 c0
-5 -2 -10 -4 -10 -3 0 -8 5 -11 10 -3 6 -1 10 4 10 6 0 11 -4 11 -10z m80 0
c8 -5 11 -12 7 -16 -4 -4 -15 0 -24 9 -18 18 -8 23 17 7z m-530 -36 c0 -9 -5
-14 -12 -12 -18 6 -21 28 -4 28 9 0 16 -7 16 -16z m104 7 c3 -5 -1 -11 -9 -15
-15 -6 -29 7 -18 18 9 9 21 8 27 -3z m-538 -38 c-11 -11 -19 6 -11 24 8 17 8
17 12 0 3 -10 2 -21 -1 -24z m954 11 c0 -8 -4 -14 -10 -14 -5 0 -10 9 -10 21
0 11 5 17 10 14 6 -3 10 -13 10 -21z m-577 -17 c3 -8 1 -20 -4 -28 -9 -15 -9
-15 -13 19 -3 24 9 30 17 9z m207 -13 c0 -14 -12 -19 -23 -8 -9 9 4 35 14 28
5 -3 9 -12 9 -20z m-92 4 c-7 -19 -35 -21 -41 -3 -5 11 0 15 19 15 16 0 24 -5
22 -12z m-533 -37 c5 -28 0 -38 -30 -68 -65 -65 -67 -12 -3 80 23 33 25 32 33
-12z m1078 -25 c21 -42 31 -76 21 -76 -16 0 -47 25 -63 50 -22 37 -17 98 6 78
8 -6 24 -30 36 -52z m-603 15 c0 -4 -15 -22 -34 -39 -43 -39 -58 -18 -18 26
24 26 52 33 52 13z m150 -49 c0 -23 -17 -19 -47 10 -25 24 -30 35 -21 45 8 11
16 7 39 -17 16 -16 29 -34 29 -38z m-95 -1 c3 -6 -4 -9 -15 -8 -11 1 -20 5
-20 9 0 11 28 10 35 -1z m-172 -45 c-3 -13 -27 -45 -54 -71 -38 -37 -50 -44
-55 -32 -7 19 16 51 69 95 21 17 40 32 42 32 1 0 0 -11 -2 -24z m413 -84 c10
-37 0 -35 -54 16 -34 30 -52 55 -52 70 0 21 4 20 50 -20 28 -24 53 -53 56 -66z
m-334 66 c-7 -7 -12 -8 -12 -2 0 14 12 26 19 19 2 -3 -1 -11 -7 -17z m-489 6
c3 -3 3 -13 0 -21 -5 -12 -7 -12 -14 -1 -15 23 -4 40 14 22z m652 -4 c3 -5 2
-10 -4 -10 -5 0 -13 5 -16 10 -3 6 -2 10 4 10 5 0 13 -4 16 -10z m491 -17 c-6
-15 -9 -15 -16 -3 -6 9 -5 17 3 22 16 10 21 2 13 -19z m-1086 8 c0 -12 -20
-25 -27 -18 -7 7 6 27 18 27 5 0 9 -4 9 -9z m924 -38 c-7 -54 -23 -93 -24 -57
0 11 -4 24 -10 30 -6 6 -2 21 13 42 12 17 23 32 25 32 1 0 0 -21 -4 -47z m114
28 c3 -8 -1 -12 -9 -9 -7 2 -15 10 -17 17 -3 8 1 12 9 9 7 -2 15 -10 17 -17z
m-923 -17 c13 -20 14 -28 5 -40 -7 -7 -9 -21 -6 -30 5 -14 4 -15 -8 -5 -14 12
-27 101 -15 101 4 0 14 -12 24 -26z m893 -32 c22 -18 24 -24 13 -31 -30 -19
-52 12 -50 69 1 20 2 21 6 5 2 -11 16 -30 31 -43z m-963 23 c0 -14 -3 -25 -6
-25 -4 0 -9 -9 -12 -19 -3 -14 -11 -18 -26 -14 -28 7 -27 17 4 37 14 9 25 23
25 31 0 8 3 15 8 15 4 0 7 -11 7 -25z m349 -10 c28 -21 8 -38 -49 -41 l-45 -1
33 28 c37 33 36 33 61 14z m303 -31 c31 -29 37 -38 16 -24 -23 16 -39 21 -58
16 -16 -4 -33 -2 -41 5 -13 10 -12 14 2 30 10 11 21 19 25 19 4 0 29 -21 56
-46z m-237 -29 c13 -16 6 -35 -15 -35 -15 0 -28 27 -19 41 8 13 20 11 34 -6z
m127 4 c9 -9 8 -15 -2 -25 -26 -26 -58 -6 -35 21 15 18 22 19 37 4z m-237 -18
c0 -12 -20 -25 -27 -18 -7 7 6 27 18 27 5 0 9 -4 9 -9z m337 -17 c-9 -9 -28 6
-21 18 4 6 10 6 17 -1 6 -6 8 -13 4 -17z m-283 -27 c8 -12 7 -20 -1 -28 -18
-18 -58 18 -41 38 13 16 28 13 42 -10z m246 7 c11 -12 10 -18 -3 -32 -16 -15
-18 -15 -34 0 -13 14 -14 20 -3 32 7 9 16 16 20 16 4 0 13 -7 20 -16z m-379
-5 c54 -18 89 -56 82 -89 -3 -15 1 -38 7 -50 11 -20 10 -25 -6 -37 -17 -13
-23 -9 -64 34 -58 63 -90 102 -90 110 0 5 28 38 36 42 1 1 16 -4 35 -10z m259
-8 c0 -10 -6 -24 -14 -30 -12 -10 -17 -8 -26 9 -13 25 -6 40 21 40 12 0 19 -7
19 -19z m263 4 c10 -7 17 -20 15 -29 -4 -19 -85 -116 -115 -139 -20 -16 -23
-16 -38 -1 -12 13 -13 19 -4 30 7 8 9 29 6 48 -4 28 -1 38 21 59 22 20 69 44
92 46 3 0 13 -6 23 -14z m-328 -50 c18 -14 18 -16 2 -32 -16 -16 -18 -16 -36
4 -14 15 -17 23 -8 32 14 14 18 14 42 -4z m125 5 c13 -9 12 -13 -8 -30 -19
-15 -26 -17 -37 -7 -11 10 -10 15 2 30 18 20 23 20 43 7z m-63 -66 c3 -8 -1
-22 -10 -31 -14 -14 -16 -13 -27 7 -10 18 -9 24 1 31 20 13 29 11 36 -7z
m-112 -4 c3 -5 2 -10 -4 -10 -5 0 -13 5 -16 10 -3 6 -2 10 4 10 5 0 13 -4 16
-10z m200 0 c3 -5 1 -10 -4 -10 -6 0 -11 5 -11 10 0 6 2 10 4 10 3 0 8 -4 11
-10z m-133 -82 c4 -10 -6 -28 -28 -49 -19 -18 -34 -28 -34 -22 0 6 7 13 15 17
21 8 19 28 -6 55 -20 21 -20 23 -3 35 14 11 20 10 34 -4 9 -9 19 -24 22 -32z
m112 19 c-4 -7 -14 -20 -22 -29 -14 -16 -13 -20 3 -38 30 -34 12 -30 -22 4
l-33 32 23 31 c17 25 25 29 40 22 10 -6 15 -15 11 -22z"/>
</g>
</svg>
